<svg width="33" height="33" viewBox="0 0 33 33" fill="none" xmlns="http://www.w3.org/2000/svg">
<path d="M8.47792 5.36861L11.7535 0.79718H23.722V11.4638H32.163V27.9718L28.3834 32.7972H0.162964V16.2892L3.94249 11.4638H8.47792V5.36861Z" fill="#9147FF"/>
<path d="M13.769 2.32104H22.168V14.2576L17.9685 19.7179L13.769 14.2576V2.32104Z" fill="white"/>
<path fill-rule="evenodd" clip-rule="evenodd" d="M5.45435 12.9876H11.7536V14.2575C11.7536 14.7081 11.9022 15.146 12.1762 15.5022L16.3757 20.9626C16.7575 21.459 17.3456 21.7495 17.9688 21.7495C18.592 21.7495 19.1801 21.459 19.5619 20.9626L23.7614 15.5022C24.0353 15.146 24.184 14.7081 24.184 14.2575V12.9876H30.6512V26.194H5.45435V12.9876Z" fill="white"/>
<path fill-rule="evenodd" clip-rule="evenodd" d="M11.5015 23.9083V19.5908H13.5172V23.9083H11.5015Z" fill="#9147FF"/>
<path fill-rule="evenodd" clip-rule="evenodd" d="M23.344 23.9083V19.5908H25.3597V23.9083H23.344Z" fill="#9147FF"/>
</svg>
